<?xml version="1.0" encoding="utf-8"?> <!-- Generator: IcoMoon.io --> <!DOCTYPE svg PUBLIC "-//W3C//DTD SVG 1.1//EN" "http://www.w3.org/Graphics/SVG/1.1/DTD/svg11.dtd"> <svg width="32" height="32" viewBox="0 0 32 32" xmlns="http://www.w3.org/2000/svg" xmlns:xlink="http://www.w3.org/1999/xlink" fill="#000000"><g><path d="M 18.962,23.068c-0.015,0.015-0.373,0.388-1.062,0.475c-0.658,0.082-1.446-0.248-1.565-0.884 c-0.002-0.009-0.012-0.012-0.014-0.021c 0.664-0.268, 1.321-1.053, 1.321-1.39c0-0.84-0.637-1.004-1.737-1.004 c-1.399,0-1.741,0.196-1.741,1.004c0,0.397, 0.668,1.125, 1.333,1.375c-0.004,0.014-0.020,0.021-0.022,0.034 c-0.124,0.655-0.904,0.97-1.546,0.886c-0.686-0.087-1.041-0.46-1.053-0.472c-0.162-0.179-0.44-0.195-0.618-0.032 c-0.18,0.161-0.195,0.438-0.033,0.617c 0.023,0.026, 0.572,0.626, 1.593,0.756c 0.106,0.014, 0.213,0.021, 0.322,0.021 c 0.668,0, 1.339-0.28, 1.77-0.783c 0.441,0.501, 1.124,0.783, 1.79,0.783c 0.106,0, 0.209-0.007, 0.313-0.021 c 1.024-0.13, 1.574-0.73, 1.597-0.756c 0.16-0.178, 0.147-0.45-0.031-0.612C 19.404,22.882, 19.124,22.894, 18.962,23.068z M 15.905,22.299c-0.573,0-1.295-0.845-1.303-1.050c0-0.424,0-0.566, 1.303-0.566c 1.3,0, 1.3,0.262, 1.3,0.556 C 17.164,21.456, 16.433,22.299, 15.905,22.299zM 19.352,21.481c 0.127,0, 0.229-0.106, 0.229-0.229c0-0.128-0.103-0.231-0.229-0.231c-0.125,0-0.229,0.103-0.229,0.231 C 19.123,21.375, 19.227,21.481, 19.352,21.481zM 18.775,22.593c 0.124,0, 0.227-0.104, 0.227-0.229c0-0.127-0.103-0.229-0.227-0.229c-0.125,0-0.229,0.103-0.229,0.229 C 18.546,22.488, 18.651,22.593, 18.775,22.593zM 19.813,22.364c0,0.125, 0.103,0.229, 0.229,0.229c 0.124,0, 0.227-0.104, 0.227-0.229c0-0.127-0.103-0.229-0.227-0.229 C 19.916,22.135, 19.813,22.237, 19.813,22.364zM 12.538,21.021c-0.125,0-0.229,0.103-0.229,0.231c0,0.123, 0.104,0.229, 0.229,0.229c 0.125,0, 0.227-0.106, 0.227-0.229 C 12.765,21.124, 12.662,21.021, 12.538,21.021zM 12.189,22.364c0-0.127-0.104-0.229-0.227-0.229c-0.127,0-0.229,0.103-0.229,0.229c0,0.125, 0.103,0.229, 0.229,0.229 C 12.085,22.593, 12.189,22.488, 12.189,22.364zM 13.227,22.593c 0.125,0, 0.229-0.104, 0.229-0.229c0-0.127-0.104-0.229-0.229-0.229c-0.123,0-0.229,0.103-0.229,0.229 C 12.998,22.488, 13.104,22.593, 13.227,22.593zM 12.737,17.778c 0.006-0.068, 0.141-1.683-1.022-2.577c-0.439-0.336-0.963-0.507-1.556-0.507 c-0.718,0-1.279,0.255-1.303,0.265c-0.075,0.035-0.125,0.109-0.127,0.192c-0.002,0.066-0.035,1.617, 1.064,2.421 c 0.503,0.364, 1.096,0.549, 1.761,0.549l 0.001,0 c 0.591,0, 1.021-0.152, 1.039-0.157 C 12.673,17.935, 12.729,17.862, 12.737,17.778z M 11.358,16.467c-0.305,0-0.552-0.247-0.552-0.55 c0-0.306, 0.248-0.551, 0.552-0.551c 0.304,0, 0.552,0.244, 0.552,0.551C 11.91,16.22, 11.662,16.467, 11.358,16.467zM 23.354,14.945c-0.022-0.010-0.585-0.265-1.305-0.265c-0.593,0-1.117,0.171-1.556,0.507 c-1.162,0.894-1.027,2.508-1.021,2.577c 0.007,0.084, 0.063,0.158, 0.144,0.186c 0.018,0.005, 0.45,0.157, 1.041,0.157 c 0.667,0, 1.258-0.185, 1.762-0.551c 1.096-0.802, 1.065-2.354, 1.064-2.419C 23.481,15.055, 23.431,14.981, 23.354,14.945z M 22.713,16.467c-0.305,0-0.554-0.247-0.554-0.55c0-0.306, 0.249-0.551, 0.554-0.551c 0.304,0, 0.551,0.244, 0.551,0.551 C 23.264,16.22, 23.018,16.467, 22.713,16.467zM 29.768,19.89c-0.681-0.211-1.351-0.351-2.002-0.439c 0.493-1.711, 0.449-3.772-0.527-6.296 c 1.645-2.984, 0.931-8.403, 0.899-8.643c-0.039-0.298-0.231-0.555-0.504-0.679c-0.276-0.127-0.594-0.1-0.845,0.066 L 21.407,7.45c-1.534-0.69-3.577-1.109-5.475-1.109c-1.918,0-3.866,0.404-5.429,1.116L 4.719,3.884 c-0.252-0.158-0.568-0.176-0.834-0.047c-0.268,0.127-0.454,0.38-0.494,0.674c-0.030,0.225-0.702,5.354, 1.134,8.658 c-0.862,2.532-0.894,4.584-0.403,6.296c-0.616,0.089-1.248,0.226-1.89,0.425c-0.116,0.036-0.18,0.157-0.144,0.274 c 0.037,0.116, 0.162,0.181, 0.274,0.144c 0.642-0.199, 1.277-0.332, 1.895-0.416c 0.141,0.402, 0.31,0.786, 0.506,1.152 c-0.705,0.197-1.405,0.463-2.1,0.8c-0.109,0.053-0.154,0.183-0.101,0.292c 0.037,0.077, 0.115,0.123, 0.197,0.123 c 0.032,0, 0.065-0.007, 0.096-0.022c 0.706-0.342, 1.417-0.607, 2.134-0.798c 0.18,0.297, 0.376,0.582, 0.588,0.856 c-0.627,0.294-1.259,0.699-1.876,1.252c-0.090,0.080-0.098,0.219-0.017,0.309c 0.044,0.048, 0.103,0.072, 0.163,0.072 c 0.052,0, 0.104-0.019, 0.146-0.056c 0.615-0.552, 1.242-0.95, 1.861-1.232c 1.173,1.397, 2.711,2.511, 4.245,3.509 c 1.205,0.785, 3.566,2.101, 5.833,2.101c 1.787,0, 4.129-0.831, 5.968-2.119c 1.323-0.929, 2.916-2.046, 4.152-3.533 c 0.649,0.284, 1.309,0.693, 1.955,1.273c 0.043,0.038, 0.094,0.056, 0.147,0.056c 0.060,0, 0.12-0.024, 0.162-0.072 c 0.081-0.091, 0.074-0.229-0.015-0.309c-0.648-0.581-1.313-1-1.97-1.297c 0.204-0.268, 0.394-0.548, 0.571-0.839 c 0.754,0.194, 1.503,0.467, 2.244,0.827c 0.031,0.015, 0.063,0.022, 0.096,0.022c 0.080,0, 0.159-0.046, 0.196-0.123 c 0.053-0.109, 0.007-0.239-0.1-0.292c-0.731-0.354-1.468-0.629-2.21-0.829c 0.193-0.361, 0.364-0.739, 0.504-1.138 c 0.654,0.083, 1.326,0.22, 2.007,0.431c 0.116,0.036, 0.237-0.027, 0.274-0.144C 29.948,20.047, 29.883,19.925, 29.768,19.89z M 25.972,11.702c-0.552-0.573-1.122-0.982-1.29-0.706c-0.18,0.292, 0.277,1.521, 0.713,2.314 c 0.017,0.031, 0.036,0.032, 0.055,0.053c 0.005,0.015,0,0.033, 0.007,0.048c 0.219,0.522, 0.379,1.010, 0.515,1.484 c-0.618-0.429-1.767-0.898-1.767-0.291c 0.004,0.712, 1.638,2.802, 2.071,3.509c-0.059,0.428-0.166,0.833-0.307,1.22 c-3.133,0.013-5.507,1.12-5.829,1.363c-0.096,0.072-0.116,0.209-0.043,0.306c 0.043,0.056, 0.108,0.087, 0.174,0.087 c 0.046,0, 0.092-0.014, 0.131-0.044c 0.286-0.214, 2.489-1.208, 5.384-1.266c-0.142,0.312-0.309,0.612-0.5,0.902 c-1.535-0.147-3.087,0.029-4.641,0.535c-0.074,0.024-0.13,0.043-0.171,0.055c-0.116,0.032-0.183,0.154-0.15,0.27 c 0.032,0.116, 0.154,0.18, 0.27,0.15c 0.046-0.012, 0.108-0.033, 0.187-0.058c 1.411-0.461, 2.82-0.641, 4.216-0.541 c-0.154,0.205-0.318,0.407-0.494,0.604c-1.623-0.268-3.023,0.040-3.743,0.199l-0.142,0.031 c-0.118,0.026-0.193,0.142-0.168,0.26c 0.025,0.118, 0.145,0.193, 0.26,0.168l 0.145-0.031c 0.697-0.156, 1.897-0.42, 3.291-0.247 c-0.902,0.916-2.024,1.76-3.252,2.622c-1.538,1.077-3.532,1.8-4.962,1.8c-1.326,0-3.103-0.662-4.878-1.818 c-1.226-0.798-2.387-1.626-3.324-2.587c 1.445-0.204, 2.696,0.069, 3.416,0.227l 0.147,0.032 c 0.116,0.026, 0.235-0.050, 0.26-0.168c 0.026-0.118-0.050-0.234-0.168-0.26l-0.145-0.033c-0.736-0.161-2.187-0.479-3.859-0.176 c-0.174-0.197-0.336-0.402-0.488-0.612c 1.433-0.118, 2.879,0.056, 4.328,0.528c 0.078,0.026, 0.141,0.046, 0.186,0.058 c 0.113,0.027, 0.238-0.036, 0.27-0.15c 0.033-0.116-0.034-0.238-0.151-0.27c-0.041-0.012-0.098-0.031-0.17-0.055 c-1.591-0.517-3.177-0.69-4.745-0.526c-0.184-0.291-0.346-0.595-0.485-0.913 c 2.939,0.039, 5.186,1.052, 5.475,1.268c 0.040,0.031, 0.085,0.044, 0.131,0.044c 0.067,0, 0.132-0.031, 0.175-0.087 c 0.073-0.097, 0.053-0.234-0.044-0.306c-0.327-0.245-2.74-1.369-5.911-1.364c-0.166-0.472-0.284-0.973-0.339-1.514 c 0.598-0.877, 1.876-2.586, 1.879-3.215c0-0.56-0.976-0.203-1.613,0.192c 0.113-0.455, 0.248-0.924, 0.431-1.423 c 0.013-0.034, 0.004-0.071, 0.013-0.106c 0.429-0.794, 0.87-1.986, 0.692-2.272c-0.166-0.27-0.717,0.12-1.26,0.675 c-0.739-1.793-0.797-4.097-0.736-5.544l 4.975,3.073c 0.261,0.164, 0.591,0.174, 0.865,0.032 c 0.174-0.091, 0.38-0.163, 0.57-0.245c 0.384,0.63, 1.072,1.545, 1.306,1.814c 0.408,0.471, 1.438-1.899, 1.070-2.503 c 0.308-0.054, 0.613-0.105, 0.926-0.137c-0.44,1.063, 0.387,3.602, 0.945,3.075c 0.513-0.486, 1.724-2.204, 1.816-3.032 c 0.435,0.056, 0.869,0.128, 1.288,0.225c-0.249,0.809, 0.023,2.183-0.005,2.64c-0.029,0.472, 1.728-0.804, 2.433-1.806 c 0.251,0.082, 0.524,0.073, 0.749-0.075l 4.577-3.022C 26.625,7.804, 26.578,10.114, 25.972,11.702z"></path></g></svg>